<?xml version="1.0" encoding="utf-8"?>
<!-- Generator: Adobe Illustrator 28.0.0, SVG Export Plug-In . SVG Version: 6.00 Build 0)  -->
<svg version="1.1" id="Ebene_1" xmlns="http://www.w3.org/2000/svg" xmlns:xlink="http://www.w3.org/1999/xlink" x="0px" y="0px"
	 viewBox="0 0 128 128" style="enable-background:new 0 0 128 128;" xml:space="preserve">
<style type="text/css">
	.st0{fill:#035DF0;}
	.st1{fill:#FFFFFF;}
</style>
<g>
	<circle class="st0" cx="64.1" cy="63.9" r="63.9"/>
	<path id="XMLID_00000089566706582379346890000007118720615103473085_" class="st1" d="M90.23,32.05c0,6.67-5.42,12.1-12.1,12.1
		c-6.67,0-12.1-5.42-12.1-12.1s5.42-12.1,12.1-12.1C84.81,19.95,90.23,25.37,90.23,32.05"/>
	<path id="XMLID_00000036957056411722193300000008349316033785708930_" class="st0" d="M83.59,31.87c0,2.9-2.44,5.25-5.45,5.25
		s-5.45-2.35-5.45-5.25s2.44-5.25,5.45-5.25S83.59,28.95,83.59,31.87"/>
	<polygon id="XMLID_00000062878936220224951180000016169779434387718307_" class="st1" points="70.56,37.16 46.85,60.87 0.2,60.87 
		0.2,66.93 49.36,66.93 74.84,41.44 	"/>
	<path id="XMLID_00000047748686250422527810000004039309372699606427_" class="st1" d="M111.06,56.13c0,6.67-5.42,12.1-12.1,12.1
		c-6.67,0-12.1-5.42-12.1-12.1s5.42-12.1,12.1-12.1C105.65,44.03,111.06,49.45,111.06,56.13"/>
	<path id="XMLID_00000048478038216531445530000016921024793387824052_" class="st0" d="M104.41,56.13c0,3-2.44,5.45-5.45,5.45
		c-3,0-5.45-2.44-5.45-5.45c0-3,2.44-5.45,5.45-5.45C101.98,50.69,104.41,53.13,104.41,56.13"/>
	<polygon id="XMLID_00000095305645490443100280000012385263246143098269_" class="st1" points="91.32,59.51 74.45,77.5 1.62,77.5 
		3.16,83.54 77.07,83.54 95.73,63.65 	"/>
	<path id="XMLID_00000149363210904131888600000010105510028883554437_" class="st1" d="M55.03,32.05c0,6.67-5.42,12.1-12.1,12.1
		s-12.1-5.42-12.1-12.1s5.42-12.1,12.1-12.1S55.03,25.37,55.03,32.05"/>
	<path id="XMLID_00000165196443489165677290000009831149350934072763_" class="st0" d="M48.37,32.05c0,3-2.44,5.45-5.45,5.45
		c-3,0-5.45-2.44-5.45-5.45s2.44-5.45,5.45-5.45C45.93,26.6,48.37,29.04,48.37,32.05"/>
	<polygon id="XMLID_00000116916305502968621810000009126487491731869071_" class="st1" points="33.02,37.23 26.54,44.14 3.23,44.14 
		1.61,50.19 29.16,50.19 37.43,41.37 	"/>
	<path id="XMLID_00000078005021703041629190000002860846135736087987_" class="st1" d="M102.33,97.26c0,6.67-5.42,12.1-12.1,12.1
		c-6.67,0-12.1-5.42-12.1-12.1s5.42-12.1,12.1-12.1C96.92,85.16,102.33,90.58,102.33,97.26"/>
	<path id="XMLID_00000114059424460356795670000015968118234219456141_" class="st0" d="M95.68,97.26c0,3-2.44,5.45-5.45,5.45
		c-3,0-5.45-2.44-5.45-5.45c0-3,2.44-5.45,5.45-5.45C93.25,91.81,95.68,94.25,95.68,97.26"/>
	<polyline id="XMLID_00000135659685478061020850000005338997752353335432_" class="st1" points="80.35,94.23 7.66,94.23 
		11.44,100.29 80.35,100.29 	"/>
</g>
</svg>
