<?xml version="1.0" encoding="utf-8"?>
<!-- Generator: Adobe Illustrator 28.0.0, SVG Export Plug-In . SVG Version: 6.00 Build 0)  -->
<svg version="1.1" id="Ebene_1" xmlns="http://www.w3.org/2000/svg" xmlns:xlink="http://www.w3.org/1999/xlink" x="0px" y="0px"
	 viewBox="0 0 324.68 85.1" style="enable-background:new 0 0 324.68 85.1;" xml:space="preserve">
<style type="text/css">
	.st0{fill:#FFFFFF;}
</style>
<g>
	<path class="st0" d="M40.5,60.8c-3.2,3.4-8.6,6.9-17.3,6.9c-8.7,0-14.1-3.5-17.3-6.9C1.4,55.9,0,50.8,0,40.2
		c0-10.5,1.4-15.7,5.9-20.6c3.2-3.4,8.6-6.9,17.3-6.9c8.7,0,14.1,3.5,17.3,6.9c4.5,4.9,5.9,10.1,5.9,20.6
		C46.4,50.8,45,55.9,40.5,60.8z M27.6,29c-1-1-2.4-1.5-4.4-1.5c-2,0-3.4,0.5-4.4,1.5c-2.1,2.1-2.4,5.9-2.4,11.2
		c0,5.3,0.3,9.1,2.4,11.2c1,1,2.4,1.5,4.4,1.5c2,0,3.4-0.5,4.4-1.5c2.1-2.1,2.4-5.9,2.4-11.2C30,34.9,29.7,31.1,27.6,29z"/>
	<path class="st0" d="M92.36,62.8c-3.1,3.1-7.8,4.9-13,4.9c-5.3,0-9-1.5-12-4.5v21.3h-16.4V13.3h11.77l4.13,4.4
		c3.3-3.3,6.8-5,12.4-5c5.2,0,10,1.8,13.1,4.9c5.3,5.3,5,14.7,5,22.6C97.36,48.1,97.66,57.5,92.36,62.8z M74.16,27.5
		c-6.1,0-6.8,4.9-6.8,12.7c0,7.8,0.7,12.7,6.8,12.7c6.1,0,6.8-4.9,6.8-12.7C80.96,32.4,80.26,27.5,74.16,27.5z"/>
	<path class="st0" d="M125.89,73.5c-1.1,3.1-2.5,5.4-4.2,7.1c-3.2,3.4-7.3,4.5-12.1,4.5H99.36l4.03-14.8h3.5c2.9,0,4.4-0.7,5.5-4
		l1.5-4.5l-17.9-48.5h17.2l9.1,27.9l8.7-27.9h17.2L125.89,73.5z"/>
	<path class="st0" d="M171.49,67.1c-11.9,0-16.7-8.5-16.7-15.9V28h-7.74l4.06-12.6h3.68V0h16.4v15.4h13.5l-5,12.6h-8.5v22
		c0,2.1,1.1,3.3,3.3,3.3h5.2l-5.25,13.8H171.49z"/>
	<path class="st0" d="M208.09,67.7c-8.1,0-16-0.4-23.4-7.8l10.6-10.6c4.5,4.5,10.3,4.5,13.1,4.5c2.4,0,7-0.7,7-3.5
		c0-1.5-0.7-3.1-3.9-3.4l-8.3-0.8c-9.3-0.9-15.6-5.1-15.6-15.6c0-11.9,10.7-17.8,21.4-17.8c8.8,0,15.9,1.3,21.2,6.6l-10.1,10.1
		c-2.7-2.7-7.2-3.2-11.4-3.2c-4,0-5.3,1.9-5.3,3.1c0,0.6-0.2,2.6,3.5,3l8.3,0.8c11.3,1.1,16.2,7.8,16.2,16.4
		C231.39,62.2,220.59,67.7,208.09,67.7z"/>
	<path class="st0" d="M261.15,73.5c-1.1,3.1-2.5,5.4-4.2,7.1c-3.2,3.4-7.3,4.5-12.1,4.5h-10.68l4.48-14.8h3.5c2.9,0,4.4-0.7,5.5-4
		l1.5-4.5l-17.9-48.5h17.2l9.1,27.9l8.7-27.9h17.2L261.15,73.5z"/>
	<path class="st0" d="M301.38,67.7c-8.1,0-16-0.4-23.4-7.8l10.6-10.6c4.5,4.5,10.3,4.5,13.1,4.5c2.4,0,7-0.7,7-3.5
		c0-1.5-0.7-3.1-3.9-3.4l-8.3-0.8c-9.3-0.9-15.6-5.1-15.6-15.6c0-11.9,10.7-17.8,21.4-17.8c8.8,0,15.9,1.3,21.2,6.6l-10.1,10.1
		c-2.7-2.7-7.2-3.2-11.4-3.2c-4,0-5.3,1.9-5.3,3.1c0,0.6-0.2,2.6,3.5,3l8.3,0.8c11.3,1.1,16.2,7.8,16.2,16.4
		C324.68,62.2,313.88,67.7,301.38,67.7z"/>
</g>
</svg>
